<?xml version="1.0" encoding="UTF-8"?><svg id="Layer_1" xmlns="http://www.w3.org/2000/svg" viewBox="0 0 24 24"><path d="M9.5,12c-2.76,0-5-2.24-5-5S6.74,2,9.5,2s5,2.24,5,5-2.24,5-5,5Zm0-8c-1.65,0-3,1.35-3,3s1.35,3,3,3,3-1.35,3-3-1.35-3-3-3ZM4,21c0-3.03,2.47-5.5,5.5-5.5,.62,0,1.22,.1,1.79,.3,.52,.18,1.09-.1,1.27-.62,.18-.52-.1-1.09-.62-1.27-.78-.27-1.61-.41-2.45-.41-4.14,0-7.5,3.36-7.5,7.5,0,.55,.45,1,1,1s1-.45,1-1Zm17-5.02h-2v-2c0-.55-.45-1-1-1s-1,.45-1,1v2h-2c-.55,0-1,.45-1,1s.45,1,1,1h2v2c0,.55,.45,1,1,1s1-.45,1-1v-2h2c.55,0,1-.45,1-1s-.45-1-1-1Z"/></svg>