<?xml version="1.0" encoding="UTF-8"?><svg id="Layer_1" xmlns="http://www.w3.org/2000/svg" viewBox="0 0 24 24"><path d="M12,5c-1.93,0-3.5,1.57-3.5,3.5s1.57,3.5,3.5,3.5,3.5-1.57,3.5-3.5-1.57-3.5-3.5-3.5Zm0,5c-.83,0-1.5-.67-1.5-1.5s.67-1.5,1.5-1.5,1.5,.67,1.5,1.5-.67,1.5-1.5,1.5Zm11,2c0-6.07-4.93-11-11-11S1,5.93,1,12c0,3.85,1.99,7.24,5,9.21v.04h.07c1.71,1.1,3.75,1.75,5.93,1.75s4.22-.65,5.93-1.75h.07v-.04c3.01-1.97,5-5.36,5-9.21Zm-15,8.05v-.05c0-2.21,1.79-4,4-4s4,1.79,4,4v.05c-1.21,.6-2.56,.95-4,.95s-2.79-.35-4-.95Zm9.88-1.25c-.56-2.73-2.98-4.8-5.88-4.8s-5.32,2.06-5.88,4.8c-1.91-1.65-3.12-4.08-3.12-6.8C3,7.04,7.04,3,12,3s9,4.04,9,9c0,2.71-1.21,5.15-3.12,6.8Z"/></svg>