<?xml version="1.0" encoding="UTF-8"?><svg id="Layer_1" xmlns="http://www.w3.org/2000/svg" viewBox="0 0 24 24"><path d="M7,14c-1.93,0-3.5-1.57-3.5-3.5s1.57-3.5,3.5-3.5,3.5,1.57,3.5,3.5-1.57,3.5-3.5,3.5Zm0-5c-.83,0-1.5,.67-1.5,1.5s.67,1.5,1.5,1.5,1.5-.67,1.5-1.5-.67-1.5-1.5-1.5Zm5,13v-1c0-2.76-2.24-5-5-5s-5,2.24-5,5v1c0,.55,.45,1,1,1s1-.45,1-1v-1c0-1.65,1.35-3,3-3s3,1.35,3,3v1c0,.55,.45,1,1,1s1-.45,1-1Zm5-14c-1.93,0-3.5-1.57-3.5-3.5s1.57-3.5,3.5-3.5,3.5,1.57,3.5,3.5-1.57,3.5-3.5,3.5Zm0-5c-.83,0-1.5,.67-1.5,1.5s.67,1.5,1.5,1.5,1.5-.67,1.5-1.5-.67-1.5-1.5-1.5Zm5,13v-1c0-2.76-2.24-5-5-5s-5,2.24-5,5v1c0,.55,.45,1,1,1s1-.45,1-1v-1c0-1.65,1.35-3,3-3s3,1.35,3,3v1c0,.55,.45,1,1,1s1-.45,1-1Z"/></svg>