<?xml version="1.0" encoding="UTF-8"?><svg id="Layer_1" xmlns="http://www.w3.org/2000/svg" viewBox="0 0 24 24"><path d="M20.83,17.45l-1.33-1.99c-.33-.49-.5-1.07-.5-1.66v-2.79c0-3.52-2.61-6.43-6-6.92v-1.08c0-.55-.45-1-1-1s-1,.45-1,1v1.08c-3.39,.49-6,3.4-6,6.92v2.79c0,.59-.17,1.17-.5,1.66l-1.33,1.99c-.11,.16-.17,.36-.17,.55v1c0,.55,.45,1,1,1h6c0,1.1,.9,2,2,2s2-.9,2-2h6c.55,0,1-.45,1-1v-1c0-.2-.06-.39-.17-.55Zm-15.63,.55l.96-1.44c.55-.82,.84-1.78,.84-2.77v-2.79c0-2.76,2.24-5,5-5s5,2.24,5,5v2.79c0,.99,.29,1.95,.84,2.77l.96,1.44H5.2Z"/></svg>