<?xml version="1.0" encoding="UTF-8"?><svg id="Layer_1" xmlns="http://www.w3.org/2000/svg" viewBox="0 0 24 24"><path d="M13,17v-6c0-.55,.45-1,1-1s1,.45,1,1v6c0,.55-.45,1-1,1s-1-.45-1-1Zm-3,1c.55,0,1-.45,1-1v-6c0-.55-.45-1-1-1s-1,.45-1,1v6c0,.55,.45,1,1,1ZM21,7c0,.55-.45,1-1,1h-1v11.5c0,1.38-1.12,2.5-2.5,2.5H7.5c-1.38,0-2.5-1.12-2.5-2.5V8h-1c-.55,0-1-.45-1-1s.45-1,1-1h4v-1.5c0-1.38,1.12-2.5,2.5-2.5h3c1.38,0,2.5,1.12,2.5,2.5v1.5h4c.55,0,1,.45,1,1Zm-11-1h4v-1.5c0-.28-.22-.5-.5-.5h-3c-.28,0-.5,.22-.5,.5v1.5Zm7,2H7v11.5c0,.28,.22,.5,.5,.5h9c.28,0,.5-.22,.5-.5V8Z"/></svg>