<?xml version="1.0" encoding="UTF-8"?><svg id="Layer_1" xmlns="http://www.w3.org/2000/svg" viewBox="0 0 24 24"><path d="M18.38,10.59c0-3.52-2.86-6.38-6.38-6.38s-6.38,2.86-6.38,6.38c0,2.23,1.15,4.19,2.88,5.33v2.12c0,1.93,1.57,3.5,3.5,3.5s3.5-1.57,3.5-3.5v-2.12c1.74-1.14,2.88-3.11,2.88-5.33Zm-4.88,7.46c0,.83-.67,1.5-1.5,1.5s-1.5-.67-1.5-1.5v-1.26c.48,.12,.98,.19,1.5,.19s1.02-.07,1.5-.19v1.26Zm-1.5-3.07c-2.42,0-4.38-1.97-4.38-4.38s1.97-4.38,4.38-4.38,4.38,1.97,4.38,4.38-1.97,4.38-4.38,4.38ZM4,10.52c0,.55-.45,1-1,1h-1c-.55,0-1-.45-1-1s.45-1,1-1h1c.55,0,1,.45,1,1Zm2.34,5.66c.39,.39,.39,1.02,0,1.41l-.71,.71c-.2,.2-.45,.29-.71,.29s-.51-.1-.71-.29c-.39-.39-.39-1.02,0-1.41l.71-.71c.39-.39,1.02-.39,1.41,0Zm13.44,.78c.39,.39,.39,1.02,0,1.41-.2,.2-.45,.29-.71,.29s-.51-.1-.71-.29l-.71-.71c-.39-.39-.39-1.02,0-1.41s1.02-.39,1.41,0l.71,.71Zm3.22-6.36c0,.55-.45,1-1,1h-1c-.55,0-1-.45-1-1s.45-1,1-1h1c.55,0,1,.45,1,1Zm-5.34-5.66c-.39-.39-.39-1.02,0-1.41l.71-.71c.39-.39,1.02-.39,1.41,0s.39,1.02,0,1.41l-.71,.71c-.2,.2-.45,.29-.71,.29s-.51-.1-.71-.29Zm-13.44-.78c-.39-.39-.39-1.02,0-1.41s1.02-.39,1.41,0l.71,.71c.39,.39,.39,1.02,0,1.41-.2,.2-.45,.29-.71,.29s-.51-.1-.71-.29l-.71-.71Z"/></svg>