<?xml version="1.0" encoding="UTF-8"?><svg id="Layer_1" xmlns="http://www.w3.org/2000/svg" viewBox="0 0 24 24"><path d="M3,13.38c-.38,0-.74-.21-.91-.58-.23-.5-.02-1.1,.48-1.33l3.02-1.41c.5-.23,1.09-.02,1.33,.48,.23,.5,.02,1.1-.48,1.33l-3.02,1.41c-.14,.06-.28,.09-.42,.09Zm.83,7.59l7.07-6.54c.41-.38,.43-1.01,.06-1.41-.38-.41-1.01-.43-1.41-.06l-7.07,6.54c-.41,.38-.43,1.01-.06,1.41,.2,.21,.47,.32,.73,.32,.24,0,.49-.09,.68-.27Zm7.89,.53l1.87-3.36c.27-.48,.09-1.09-.39-1.36-.49-.27-1.09-.09-1.36,.39l-1.87,3.36c-.27,.48-.09,1.09,.39,1.36,.15,.08,.32,.12,.48,.12,.35,0,.69-.19,.88-.51Zm3.9-6.83l1.68-3.03,3.41,.66c.47,.09,.93-.13,1.16-.55,.23-.42,.16-.93-.16-1.27l-2.36-2.54,1.68-3.03c.23-.41,.17-.93-.15-1.27-.32-.35-.83-.45-1.26-.25l-3.14,1.47-2.36-2.53c-.32-.35-.83-.45-1.26-.25-.43,.2-.68,.65-.62,1.12l.42,3.44-3.14,1.47c-.43,.2-.68,.65-.62,1.12,.06,.47,.41,.85,.88,.94l3.4,.66,.42,3.44c.06,.47,.41,.85,.87,.94,.07,.01,.14,.02,.21,.02,.39,0,.76-.21,.96-.56Zm-.05-.64h0s0,0,0,0Zm4.68-2.18s0,0,0,0h0Zm-5.44-4l-.26-2.11,1.45,1.55,1.93-.9-1.03,1.86,1.45,1.55-2.09-.41-1.03,1.86-.26-2.11-2.09-.41,1.93-.9Zm4.47-3.9s0,0,0,0h0Zm-6.63-.26s0,0,0,0h0Z"/></svg>