<?xml version="1.0" encoding="UTF-8"?><svg id="Layer_1" xmlns="http://www.w3.org/2000/svg" viewBox="0 0 24 24"><path d="M22,12c0-.51-.38-.91-.87-.97l-2.13-4.26v-2.76h-4.63l-2.39-2.03-3.22,2.9-3.38-1.13-2.61,7.3c-.44,.1-.78,.48-.78,.96,0,.5,.38,.91,.87,.97l1.93,3.9c-.53,.55-.87,1.3-.87,2.13,0,1.69,1.38,3.07,3.07,3.07,1.34,0,2.47-.87,2.89-2.07h4.23c.42,1.2,1.55,2.07,2.89,2.07,1.69,0,3.07-1.38,3.07-3.07,0-.83-.33-1.58-.87-2.13l1.93-3.9c.49-.07,.87-.47,.87-.97Zm-5,3.93c-1.34,0-2.47,.87-2.89,2.07h-4.23c-.42-1.2-1.55-2.07-2.89-2.07-.14,0-.28,.02-.41,.04l-1.48-2.97h13.78l-1.47,2.97c-.14-.02-.27-.04-.41-.04ZM6.61,6.26l2.62,.87,2.78-2.5,1.61,1.37h3.37v1.24l1.88,3.76H4.92l1.69-4.74Zm.39,13.67c-.51,0-.93-.42-.93-.93s.42-.93,.93-.93,.93,.42,.93,.93-.42,.93-.93,.93Zm10,0c-.51,0-.93-.42-.93-.93s.42-.93,.93-.93,.93,.42,.93,.93-.42,.93-.93,.93Z"/></svg>