<?xml version="1.0" encoding="UTF-8"?><svg id="Layer_1" xmlns="http://www.w3.org/2000/svg" viewBox="0 0 24 24"><path d="M20,9c-.55,0-1,.45-1,1v1c0,.42-.09,.82-.25,1.19l-1.12-1.56-.7-5.97c-.18-1.51-1.46-2.65-2.98-2.65h-3.91c-1.52,0-2.8,1.14-2.98,2.65l-.7,5.97-1.12,1.56c-.16-.37-.25-.77-.25-1.19v-1c0-.55-.45-1-1-1s-1,.45-1,1v1c0,2.76,2.24,5,5,5h3v3c-1.65,0-3,1.35-3,3h2c0-.55,.45-1,1-1h2c.55,0,1,.45,1,1h2c0-1.65-1.35-3-3-3v-3h3c2.76,0,5-2.24,5-5v-1c0-.55-.45-1-1-1ZM9.05,4.88c.06-.5,.49-.88,.99-.88h3.91c.51,0,.93,.38,.99,.88l.6,5.12h-7.09l.6-5.12Zm6.95,9.12H8c-.49,0-.94-.13-1.35-.34l1.2-1.66h8.31l1.2,1.66c-.41,.21-.86,.34-1.35,.34Z"/></svg>