<?xml version="1.0" encoding="UTF-8"?><svg id="Layer_1" xmlns="http://www.w3.org/2000/svg" viewBox="0 0 24 24"><path d="M12,1C5.93,1,1,5.93,1,12s4.93,11,11,11,11-4.93,11-11S18.07,1,12,1Zm0,20c-4.96,0-9-4.04-9-9S7.04,3,12,3s9,4.04,9,9-4.04,9-9,9Zm3.31-13.47l-5.11,1.96c-.26,.1-.47,.31-.57,.57l-1.96,5.11c-.14,.37-.05,.79,.23,1.07,.19,.19,.45,.29,.71,.29,.12,0,.24-.02,.36-.07l5.11-1.96c.26-.1,.47-.31,.57-.57l1.96-5.11c.14-.37,.05-.79-.23-1.07s-.7-.37-1.07-.23Zm-4.97,6.26l1-2.59h0l1.6,1.6h0s-2.59,1-2.59,1Z"/></svg>