<?xml version="1.0" encoding="UTF-8"?><svg id="Layer_1" xmlns="http://www.w3.org/2000/svg" viewBox="0 0 24 24"><path d="M17,2H7c-1.65,0-3,1.51-3,3.36v.64h-1c-.55,0-1,.45-1,1s.45,1,1,1h1v3h-1c-.55,0-1,.45-1,1s.45,1,1,1h1v3h-1c-.55,0-1,.45-1,1s.45,1,1,1h1v.64c0,1.85,1.35,3.36,3,3.36h10c1.65,0,3-1.51,3-3.36V5.36c0-1.85-1.35-3.36-3-3.36Zm1,16.64c0,.74-.46,1.36-1,1.36H7c-.54,0-1-.62-1-1.36V5.36c0-.74,.46-1.36,1-1.36h10c.54,0,1,.62,1,1.36v13.27ZM10,10c0-1.1,.9-2,2-2s2,.9,2,2-.9,2-2,2-2-.9-2-2Zm5.85,5.98c.29,.47,.14,1.09-.33,1.38-.16,.1-.34,.15-.52,.15-.34,0-.66-.17-.85-.48-.38-.62-1.23-1.02-2.15-1.02s-1.77,.4-2.15,1.02c-.29,.47-.91,.62-1.38,.33-.47-.29-.62-.91-.33-1.38,.75-1.22,2.23-1.98,3.85-1.98s3.1,.76,3.85,1.98Z"/></svg>