<?xml version="1.0" encoding="UTF-8"?><svg id="Layer_1" xmlns="http://www.w3.org/2000/svg" viewBox="0 0 24 24"><path d="M7.54,9.96c-.39-.39-.39-1.02,0-1.41s1.02-.39,1.41,0l2.04,2.04V5c0-.55,.45-1,1-1s1,.45,1,1v5.59l2.04-2.04c.39-.39,1.02-.39,1.41,0s.39,1.02,0,1.41l-3.75,3.75c-.09,.09-.2,.17-.33,.22-.12,.05-.25,.08-.38,.08s-.26-.03-.38-.08c-.12-.05-.23-.12-.33-.22l-3.75-3.75Zm13.46,4.04c-.55,0-1,.45-1,1v3H4v-3c0-.55-.45-1-1-1s-1,.45-1,1v4c0,.55,.45,1,1,1H21c.55,0,1-.45,1-1v-4c0-.55-.45-1-1-1Z"/></svg>