<?xml version="1.0" encoding="UTF-8"?><svg id="Layer_1" xmlns="http://www.w3.org/2000/svg" viewBox="0 0 24 24"><path d="M14.5,6.5c-.26,0-.51-.1-.71-.29l-1.79-1.79-1.79,1.79c-.39,.39-1.02,.39-1.41,0s-.39-1.02,0-1.41l2.5-2.5c.39-.39,1.02-.39,1.41,0l2.5,2.5c.39,.39,.39,1.02,0,1.41-.2,.2-.45,.29-.71,.29Zm-1.79,15.21l2.5-2.5c.39-.39,.39-1.02,0-1.41s-1.02-.39-1.41,0l-1.79,1.79-1.79-1.79c-.39-.39-1.02-.39-1.41,0s-.39,1.02,0,1.41l2.5,2.5c.2,.2,.45,.29,.71,.29s.51-.1,.71-.29Zm7.29-11.71c0-.55-.45-1-1-1H5c-.55,0-1,.45-1,1s.45,1,1,1h14c.55,0,1-.45,1-1Zm0,4c0-.55-.45-1-1-1H5c-.55,0-1,.45-1,1s.45,1,1,1h14c.55,0,1-.45,1-1Z"/></svg>