<?xml version="1.0" encoding="UTF-8"?><svg id="Layer_1" xmlns="http://www.w3.org/2000/svg" viewBox="0 0 24 24"><path d="M10,21c0,.55-.45,1-1,1H5c-.55,0-1-.45-1-1V3c0-.55,.45-1,1-1h4c.55,0,1,.45,1,1s-.45,1-1,1h-3V20h3c.55,0,1,.45,1,1Zm9.92-8.37c.1-.24,.1-.52,0-.76-.05-.12-.12-.23-.22-.33l-3.75-3.75c-.39-.39-1.02-.39-1.41,0s-.39,1.02,0,1.41l2.04,2.04h-5.59c-.55,0-1,.45-1,1s.45,1,1,1h5.59l-2.04,2.04c-.39,.39-.39,1.02,0,1.41,.2,.2,.45,.29,.71,.29s.51-.1,.71-.29l3.75-3.75c.09-.09,.17-.2,.22-.33Z"/></svg>