<?xml version="1.0" encoding="UTF-8"?><svg id="Layer_1" xmlns="http://www.w3.org/2000/svg" viewBox="0 0 24 24"><path d="M21.91,9.58l-2.79-6c-.16-.35-.52-.58-.91-.58H5.79c-.39,0-.74,.23-.91,.58l-2.79,6c-.17,.36-.11,.79,.16,1.09l9,10c.19,.21,.46,.33,.74,.33s.55-.12,.74-.33l9-10c.27-.3,.33-.73,.16-1.09Zm-2.47-.58h-3.27l-1.29-4h2.7l1.86,4Zm-11.74,2l1.2,4.05-3.64-4.05h2.45Zm4.31,7.51h0s-2.22-7.51-2.22-7.51h4.44l-2.22,7.5h0Zm-2.06-9.5l1.29-4h1.54l1.29,4h-4.12Zm6.37,2h2.45l-3.64,4.05,1.2-4.05ZM6.43,5h2.7l-1.29,4h-3.27l1.86-4Z"/></svg>