<?xml version="1.0" encoding="UTF-8"?><svg id="Layer_1" xmlns="http://www.w3.org/2000/svg" viewBox="0 0 24 24"><path d="M3.5,9c0-1.1,.9-2,2-2s2,.9,2,2-.9,2-2,2-2-.9-2-2Zm8.5-1c1.38,0,2.5-1.12,2.5-2.5s-1.12-2.5-2.5-2.5-2.5,1.12-2.5,2.5,1.12,2.5,2.5,2.5Zm6.5,3c1.1,0,2-.9,2-2s-.9-2-2-2-2,.9-2,2,.9,2,2,2Zm0,2c-.62,0-1.23,.14-1.79,.39-.67-1.96-2.52-3.39-4.71-3.39s-4.03,1.42-4.71,3.39c-.56-.24-1.17-.39-1.79-.39-2.48,0-4.5,2.02-4.5,4.5v.5c0,.55,.45,1,1,1s1-.45,1-1v-.5c0-1.38,1.12-2.5,2.5-2.5,.55,0,1.07,.19,1.5,.51v4.49c0,.55,.45,1,1,1s1-.45,1-1v-5c0-1.65,1.35-3,3-3s3,1.35,3,3v5c0,.55,.45,1,1,1s1-.45,1-1v-4.49c.44-.33,.95-.51,1.5-.51,1.38,0,2.5,1.12,2.5,2.5v.5c0,.55,.45,1,1,1s1-.45,1-1v-.5c0-2.48-2.02-4.5-4.5-4.5Z"/></svg>