<?xml version="1.0" encoding="UTF-8"?><svg id="Layer_1" xmlns="http://www.w3.org/2000/svg" viewBox="0 0 24 24"><path d="M12,10c-2.21,0-4,1.79-4,4s1.79,4,4,4,4-1.79,4-4-1.79-4-4-4Zm0,6c-1.1,0-2-.9-2-2s.9-2,2-2,2,.9,2,2-.9,2-2,2Zm10.79,.39l-1.33-1.73v-1.58c0-3.72-2.21-7.07-5.51-8.6-.25-1.41-1.47-2.48-2.95-2.48h-2c-1.48,0-2.7,1.07-2.95,2.48-3.31,1.52-5.51,4.87-5.51,8.6v1.58l-1.33,1.73c-.13,.17-.21,.39-.21,.61v2c0,.4,.24,.76,.6,.92,.2,.08,4.88,2.08,10.4,2.08s10.2-2,10.4-2.08c.37-.16,.6-.52,.6-.92v-2c0-.22-.07-.43-.21-.61Zm-1.79,1.93c-1.39,.51-5.01,1.68-9,1.68s-7.61-1.17-9-1.68v-.98l1.33-1.73c.13-.17,.21-.39,.21-.61v-1.92c0-2.59,1.36-4.93,3.46-6.28v.2c0,.55,.45,1,1,1s1-.45,1-1v-2c0-.55,.45-1,1-1h2c.55,0,1,.45,1,1v2c0,.55,.45,1,1,1s1-.45,1-1v-.2c2.1,1.35,3.46,3.69,3.46,6.28v1.92c0,.22,.07,.43,.21,.61l1.33,1.73v.98Z"/></svg>