<?xml version="1.0" encoding="UTF-8"?><svg id="Layer_1" xmlns="http://www.w3.org/2000/svg" viewBox="0 0 24 24"><path d="M19.78,4.22C15.49-.07,8.51-.07,4.22,4.22S-.07,15.49,4.22,19.78c2.14,2.14,4.96,3.22,7.78,3.22s5.63-1.07,7.78-3.22c4.29-4.29,4.29-11.27,0-15.56Zm-.75,13.39l-2.14-2.14c.72-1.01,1.11-2.21,1.11-3.47s-.39-2.46-1.11-3.47l2.14-2.14c2.62,3.27,2.62,7.96,0,11.23Zm-11.03-5.62c0-1.07,.42-2.07,1.17-2.83s1.76-1.17,2.83-1.17,2.07,.42,2.83,1.17,1.17,1.76,1.17,2.83-.42,2.07-1.17,2.83c-1.51,1.51-4.14,1.51-5.66,0-.76-.76-1.17-1.76-1.17-2.83Zm9.62-7.03l-2.14,2.14c-1.01-.72-2.21-1.11-3.47-1.11s-2.46,.39-3.47,1.11l-2.14-2.14c1.64-1.31,3.62-1.97,5.62-1.97s3.98,.66,5.62,1.97Zm-12.65,1.41l2.14,2.14c-.72,1.01-1.11,2.21-1.11,3.47s.39,2.46,1.11,3.47l-2.14,2.14c-2.62-3.27-2.62-7.96,0-11.23Zm1.41,12.65l2.14-2.14c1.01,.72,2.21,1.11,3.47,1.11s2.46-.39,3.47-1.11l2.14,2.14c-3.27,2.62-7.96,2.62-11.23,0Z"/></svg>