<?xml version="1.0" encoding="UTF-8"?><svg id="Layer_1" xmlns="http://www.w3.org/2000/svg" viewBox="0 0 24 24"><path d="M22.41,11.59c-.08-.18-1.3-2.79-3.69-4.89l1.49-1.49-1.41-1.41-1.7,1.7c-1.41-.87-3.1-1.49-5.1-1.49C5.1,4,1.73,11.28,1.59,11.59l-.19,.41,.19,.41c.08,.18,1.3,2.79,3.69,4.89l-1.49,1.49,1.41,1.41,1.7-1.7c1.41,.87,3.1,1.49,5.1,1.49,6.9,0,10.27-7.28,10.41-7.59l.19-.41-.19-.41Zm-18.79,.41c.77-1.42,3.62-6,8.38-6,1.37,0,2.58,.39,3.62,.96l-1.61,1.61c-.59-.35-1.28-.57-2.02-.57-2.21,0-4,1.79-4,4,0,.74,.22,1.42,.57,2.02l-1.86,1.86c-1.63-1.4-2.67-3.11-3.09-3.88Zm10.38,0c0,1.1-.9,2-2,2-.18,0-.35-.03-.51-.07l2.44-2.44c.04,.16,.07,.33,.07,.51Zm-4,0c0-1.1,.9-2,2-2,.18,0,.35,.03,.51,.07l-2.44,2.44c-.04-.16-.07-.33-.07-.51Zm2,6c-1.37,0-2.58-.39-3.62-.96l1.61-1.61c.59,.35,1.28,.57,2.02,.57,2.21,0,4-1.79,4-4,0-.74-.22-1.42-.57-2.02l1.86-1.86c1.63,1.4,2.67,3.11,3.09,3.88-.77,1.42-3.62,6-8.38,6Z"/></svg>