<?xml version="1.0" encoding="UTF-8"?><svg id="Layer_1" xmlns="http://www.w3.org/2000/svg" viewBox="0 0 24 24"><path d="M21,14.18v-4.18c0-2.21-1.79-4-4-4h-2c-.49-1.17-1.65-2-3-2s-2.51,.83-3,2h-2c-2.21,0-4,1.79-4,4v4.18c-1.16,.41-2,1.51-2,2.82,0,1.65,1.35,3,3,3s3-1.35,3-3c0-1.3-.84-2.4-2-2.82v-4.18c0-1.1,.9-2,2-2h1.85c.26,1.1,1.09,1.98,2.15,2.33v3.86c-1.16,.41-2,1.51-2,2.82,0,1.65,1.35,3,3,3s3-1.35,3-3c0-1.3-.84-2.4-2-2.82v-3.86c1.07-.35,1.89-1.22,2.15-2.33h1.85c1.1,0,2,.9,2,2v4.18c-1.16,.41-2,1.51-2,2.82,0,1.65,1.35,3,3,3s3-1.35,3-3c0-1.3-.84-2.4-2-2.82Zm-17,3.82c-.55,0-1-.45-1-1s.45-1,1-1,1,.45,1,1-.45,1-1,1Zm8,0c-.55,0-1-.45-1-1s.45-1,1-1,1,.45,1,1-.45,1-1,1Zm0-9.5c-.69,0-1.25-.56-1.25-1.25s.56-1.25,1.25-1.25,1.25,.56,1.25,1.25-.56,1.25-1.25,1.25Zm8,9.5c-.55,0-1-.45-1-1s.45-1,1-1,1,.45,1,1-.45,1-1,1Z"/></svg>