<?xml version="1.0" encoding="UTF-8"?><svg id="Layer_1" xmlns="http://www.w3.org/2000/svg" viewBox="0 0 24 24"><path d="M13,7v4.59l1.71,1.71c.39,.39,.39,1.02,0,1.41-.2,.2-.45,.29-.71,.29s-.51-.1-.71-.29l-2-2c-.19-.19-.29-.44-.29-.71V7c0-.55,.45-1,1-1s1,.45,1,1ZM12,.97c-2.81,0-5.46,1.06-7.46,2.92v-1.8c0-.55-.45-1-1-1s-1,.45-1,1V6.59c0,.48,.35,.86,.8,.96,.04,0,.08,.02,.12,.02,.03,0,.05,.02,.08,.02h4.5c.55,0,1-.45,1-1s-.45-1-1-1h-2.37c1.67-1.66,3.92-2.62,6.33-2.62,4.96,0,9,4.04,9,9s-4.04,9-9,9S3,16.93,3,11.97c0-.55-.45-1-1-1s-1,.45-1,1c0,6.07,4.93,11,11,11s11-4.93,11-11S18.07,.97,12,.97Z"/></svg>