<?xml version="1.0" encoding="UTF-8"?><svg id="Layer_1" xmlns="http://www.w3.org/2000/svg" viewBox="0 0 24 24"><path d="M21.82,12.36l-3.52-8.79c-.38-.95-1.29-1.57-2.32-1.57h-7.97c-1.03,0-1.94,.62-2.32,1.57L2.18,12.36c-.12,.3-.18,.61-.18,.93v6.21c0,1.38,1.12,2.5,2.5,2.5h15c1.38,0,2.5-1.12,2.5-2.5v-6.21c0-.32-.06-.63-.18-.93ZM7.55,4.31c.08-.19,.26-.31,.46-.31h7.97c.21,0,.39,.12,.46,.31l3.07,7.69h-4.42l-.19,.75c-.34,1.32-1.54,2.25-2.91,2.25s-2.56-.92-2.91-2.25l-.19-.75H4.48l3.07-7.69Zm11.95,15.69H4.5c-.28,0-.5-.22-.5-.5v-5.5h3.42c.78,1.8,2.57,3,4.58,3s3.8-1.2,4.58-3h3.42v5.5c0,.28-.22,.5-.5,.5Z"/></svg>