<?xml version="1.0" encoding="UTF-8"?><svg id="Layer_1" xmlns="http://www.w3.org/2000/svg" viewBox="0 0 24 24"><path d="M19.36,13.76h-1.41l-1.65-1.65,5.7-5.72V2s-4.39,0-4.39,0l-7.12,7.12L6.37,5.01l.16-.55L3.05,2.04l-1.06,1.06,2.42,3.48,.55-.16,4.12,4.12-6.28,6.28c-.59,.59-.91,1.37-.91,2.2,0,.83,.33,1.61,.91,2.19,.61,.61,1.4,.91,2.2,.91s1.59-.3,2.19-.9l4.88-4.86,1.65,1.65v1.41s2.76,2.75,2.76,2.75l.49-.06c.16-.02,1.65-.25,3.25-1.86,1.61-1.61,1.83-3.09,1.86-3.25l.06-.49-2.76-2.76Zm-3.77-3.77l-1.57-1.57,2.09-2.09,1.57,1.57-2.09,2.1Zm2.84-5.99h1.56s0,1.57,0,1.57l-.91,.91-1.57-1.57,.91-.91ZM5.77,19.8c-.43,.43-1.13,.43-1.56,0-.21-.21-.32-.49-.33-.78,0-.29,.11-.57,.32-.78l4.16-4.16,1.57,1.57-4.17,4.15Zm13.02-.96c-.67,.67-1.29,1-1.67,1.16l-1.41-1.41v-1.41s-3.06-3.06-3.06-3.06h-1.41l-1.45-1.45,2.83-2.83,1.45,1.45v1.41l3.06,3.06h1.41l1.41,1.41c-.16,.39-.48,1-1.15,1.67Z"/></svg>