<?xml version="1.0" encoding="UTF-8"?><svg id="Layer_1" xmlns="http://www.w3.org/2000/svg" viewBox="0 0 24 24"><path d="M12,23c-.26,0-.51-.1-.71-.29l-5.86-5.86c-1.75-1.75-2.72-4.08-2.72-6.57s.97-4.81,2.72-6.56c1.75-1.75,4.08-2.72,6.56-2.72s4.81,.97,6.56,2.72c1.75,1.75,2.72,4.08,2.72,6.56s-.97,4.81-2.72,6.57l-5.86,5.86c-.2,.2-.45,.29-.71,.29Zm0-20c-1.95,0-3.77,.76-5.15,2.13s-2.13,3.21-2.13,5.15,.76,3.78,2.13,5.15l5.15,5.15,5.15-5.15c1.38-1.38,2.13-3.21,2.13-5.15s-.76-3.77-2.13-5.15h0c-1.38-1.38-3.21-2.13-5.15-2.13Zm0,11.04c-.96,0-1.93-.37-2.66-1.1s-1.1-1.66-1.1-2.66,.39-1.95,1.1-2.66h0c1.42-1.42,3.9-1.42,5.32,0,.71,.71,1.1,1.65,1.1,2.66s-.39,1.95-1.1,2.66-1.7,1.1-2.66,1.1Zm0-5.52c-.47,0-.91,.18-1.25,.52h0c-.33,.33-.52,.78-.52,1.25s.18,.91,.52,1.25c.67,.66,1.82,.66,2.49,0,.33-.33,.52-.78,.52-1.25s-.18-.91-.52-1.25-.78-.52-1.25-.52Z"/></svg>