<?xml version="1.0" encoding="UTF-8"?><svg id="Layer_1" xmlns="http://www.w3.org/2000/svg" viewBox="0 0 24 24"><path d="M17.58,9.28L22.82,1H14.26l-2.26,3.58-2.26-3.58H1.18L6.42,9.28c-1.49,1.45-2.42,3.48-2.42,5.72,0,4.41,3.59,8,8,8s8-3.59,8-8c0-2.24-.93-4.27-2.42-5.72Zm-2.21-6.28h3.82l-3.21,5.07c-.72-.41-1.5-.72-2.33-.9l-.46-.72,2.18-3.45Zm-10.55,0h3.82l2.56,4.04c-1.15,.12-2.22,.48-3.17,1.03L4.82,3Zm7.18,18c-3.31,0-6-2.69-6-6s2.69-6,6-6,6,2.69,6,6-2.69,6-6,6Zm3.65-6.58l-2.02,1.47,.77,2.37c.03,.1,0,.22-.09,.28-.04,.03-.1,.05-.15,.05s-.1-.02-.15-.05l-2.02-1.47-2.02,1.47c-.09,.06-.21,.06-.29,0-.09-.06-.12-.18-.09-.28l.77-2.37-2.02-1.47c-.09-.06-.12-.18-.09-.28,.03-.1,.13-.17,.24-.17h2.49l.77-2.37c.07-.21,.41-.21,.48,0l.77,2.37h2.49c.11,0,.2,.07,.24,.17,.03,.1,0,.22-.09,.28Z"/></svg>