<?xml version="1.0" encoding="UTF-8"?><svg id="Layer_1" xmlns="http://www.w3.org/2000/svg" viewBox="0 0 24 24"><path d="M21,10.2c0-.76-.4-1.43-1-1.82V1.44L10.98,5.6h-3.38c-2.54,0-4.6,2.06-4.6,4.6,0,.81,.23,1.55,.59,2.21h-.02s5.06,9.59,5.06,9.59h8.22l-2.82-2.82c-.14-.14-.26-.31-.36-.51l-1.86-3.48,8.19,3.78v-6.95c.6-.38,1-1.05,1-1.82Zm-8.86,9.8h-2.3l-2.78-5.25c.18,.02,.35,.05,.54,.05h1.74l2.55,4.78c.07,.14,.15,.28,.24,.42Zm5.86-4.16l-6.58-3.04h-3.82c-1.43,0-2.6-1.17-2.6-2.6s1.17-2.6,2.6-2.6h3.82l6.58-3.04V15.84Z"/></svg>