<?xml version="1.0" encoding="UTF-8"?><svg id="Layer_1" xmlns="http://www.w3.org/2000/svg" viewBox="0 0 24 24"><path d="M12,2C6.49,2,2,6.49,2,12s4.49,10,10,10,10-4.49,10-10S17.51,2,12,2Zm0,18c-4.41,0-8-3.59-8-8S7.59,4,12,4s8,3.59,8,8-3.59,8-8,8Zm2.96-6.91c.14,.3,.21,.67,.21,1.09,0,.72-.23,1.31-.68,1.76-.38,.38-.88,.62-1.49,.73v1.33h-2v-1.38c-.62-.15-1.12-.43-1.49-.83-.49-.53-.73-1.23-.73-2.1h2.13c0,.48,.11,.84,.32,1.09,.21,.25,.51,.38,.9,.38,.29,0,.51-.09,.67-.26,.16-.17,.25-.4,.25-.7,0-.33-.08-.59-.25-.78-.16-.19-.45-.37-.86-.54s-.79-.34-1.14-.51-.65-.37-.9-.6c-.25-.23-.45-.49-.58-.79s-.2-.66-.2-1.08c0-.71,.24-1.3,.72-1.76,.32-.3,.71-.52,1.17-.65v-1.48h2v1.41c.65,.14,1.17,.43,1.56,.89,.44,.52,.66,1.18,.66,1.98h-2.13c0-.44-.08-.77-.25-1.01s-.41-.35-.72-.35c-.28,0-.49,.09-.65,.26s-.23,.42-.23,.72,.09,.56,.26,.74c.18,.18,.46,.36,.85,.52,.39,.17,.76,.34,1.11,.52,.35,.18,.65,.38,.9,.61s.45,.49,.59,.79Z"/></svg>