<?xml version="1.0" encoding="UTF-8"?><svg id="Layer_1" xmlns="http://www.w3.org/2000/svg" viewBox="0 0 24 24"><path d="M12.23,22c-2.62,0-5.24-1-7.23-2.99-3.99-3.99-3.99-10.48,0-14.47,1.14-1.14,2.51-1.98,4.06-2.48,.36-.12,.75-.02,1.02,.24s.36,.66,.24,1.02c-.97,2.97-.2,6.18,2,8.37,2.2,2.2,5.41,2.96,8.37,2,.36-.12,.75-.02,1.02,.24,.27,.27,.36,.66,.24,1.02-.51,1.55-1.34,2.92-2.48,4.06-1.99,1.99-4.61,2.99-7.23,2.99ZM7.97,4.73c-.57,.34-1.09,.75-1.56,1.22-3.21,3.21-3.21,8.43,0,11.64,3.21,3.21,8.43,3.21,11.64,0,.47-.47,.88-1,1.22-1.56-3.06,.35-6.14-.69-8.37-2.93-2.24-2.23-3.28-5.31-2.93-8.37Z"/></svg>