<?xml version="1.0" encoding="UTF-8"?><svg id="Layer_1" xmlns="http://www.w3.org/2000/svg" viewBox="0 0 24 24"><path d="M17.66,12.34c-3.12-3.12-8.19-3.12-11.31,0l-1.41-1.41c3.9-3.9,10.24-3.9,14.14,0l-1.41,1.41Zm4.24-4.24c-2.64-2.64-6.16-4.1-9.9-4.1s-7.26,1.46-9.9,4.1l1.41,1.41c2.27-2.27,5.28-3.51,8.49-3.51s6.22,1.25,8.49,3.51l1.41-1.41Zm-5.66,5.66c-1.13-1.13-2.64-1.76-4.24-1.76s-3.11,.62-4.24,1.76l1.41,1.41c1.51-1.51,4.15-1.51,5.66,0l1.41-1.41Zm-5.66,2.83c-.78,.78-.78,2.05,0,2.83s2.05,.78,2.83,0,.78-2.05,0-2.83-2.05-.78-2.83,0Z"/></svg>