<?xml version="1.0" encoding="UTF-8"?><svg id="Layer_1" xmlns="http://www.w3.org/2000/svg" viewBox="0 0 24 24"><path d="M4.85,17.09c.39,.4,.38,1.03-.02,1.41-.19,.19-.45,.28-.7,.28s-.52-.1-.72-.3c-.91-.94-1.42-2.18-1.42-3.49,0-2.04,1.2-3.82,3.01-4.59,0-.13-.01-.27-.01-.41,0-3.09,2.32-5.66,5.39-5.97,.56-.05,1.04,.34,1.1,.89,.06,.55-.34,1.04-.89,1.1-2.05,.21-3.59,1.92-3.59,3.98,0,.3,.03,.59,.1,.88,.12,.54-.22,1.07-.76,1.19-1.36,.3-2.34,1.54-2.34,2.93,0,.79,.3,1.53,.85,2.09Zm17.15-3.09c0,3.31-2.69,6-6,6h-7.38l-.72,1.45c-.18,.35-.53,.55-.9,.55-.15,0-.3-.03-.45-.11-.49-.25-.69-.85-.45-1.34L15.11,2.55c.25-.49,.85-.69,1.34-.45,.49,.25,.69,.85,.45,1.34l-1.33,2.67c.49,.57,.87,1.22,1.11,1.92,2.99,.33,5.33,2.88,5.33,5.96Zm-2,0c0-2.21-1.79-4-4-4h-.1c-.5,0-.92-.37-.99-.85-.08-.35-.2-.69-.36-1l-4.93,9.85h6.38c2.21,0,4-1.79,4-4Z"/></svg>