<?xml version="1.0" encoding="UTF-8"?><svg id="Layer_1" xmlns="http://www.w3.org/2000/svg" viewBox="0 0 24 24"><path d="M9.32,23c-1.72,0-3.44-.64-4.78-1.91-2.82-2.69-2.66-7.36,.1-10.12L13,2.6c1.88-1.88,5.13-2.07,7.06-.24,1.12,1.07,1.68,2.57,1.51,4.13-.12,1.19-.73,2.27-1.58,3.12-1.41,1.41-4.38,4.38-6.11,6.11-1.1,1.1-2.89,1.21-4.05,.18-.83-.74-1.18-1.74-1.01-2.78,.1-.62,.44-1.19,.88-1.64l3.09-3.09c.39-.39,1.02-.39,1.41,0h0c.39,.39,.39,1.02,0,1.41l-3.16,3.16c-.18,.18-.28,.41-.28,.67,0,.25,.1,.49,.28,.68,.43,.43,1.02,.39,1.37,.03l6.31-6.31c.56-.56,.86-1.3,.86-2.09s-.29-1.48-.81-2.03c-1.15-1.2-3.17-1.1-4.35,.07L5.99,12.44c-1.82,1.82-2.12,4.77-.48,6.75,1.87,2.28,5.26,2.4,7.3,.37l6.28-6.28c.39-.39,1.02-.39,1.41,0s.39,1.02,0,1.41l-6.28,6.28c-1.35,1.35-3.12,2.03-4.9,2.03Z"/></svg>