<?xml version="1.0" encoding="UTF-8"?><svg id="Layer_1" xmlns="http://www.w3.org/2000/svg" viewBox="0 0 24 24"><path d="M19.27,13.39c.36-.42,.3-1.05-.12-1.41-.42-.36-1.05-.3-1.41,.12-.54,.64-1.13,1.17-1.77,1.61l-1.28-4.01c.5-.6,.81-1.37,.81-2.21,0-1.58-1.06-2.9-2.5-3.34V2c0-.55-.45-1-1-1s-1,.45-1,1v2.16c-1.44,.43-2.5,1.76-2.5,3.34,0,.84,.31,1.6,.81,2.21l-1.28,4.01c-.63-.43-1.23-.97-1.77-1.61-.35-.42-.99-.48-1.41-.12-.42,.35-.48,.99-.12,1.41,.79,.95,1.7,1.71,2.67,2.3l-1.91,6.01c-.17,.53,.12,1.09,.65,1.26,.1,.03,.2,.05,.3,.05,.42,0,.82-.27,.95-.7l1.83-5.77c.89,.3,1.82,.46,2.77,.46s1.88-.16,2.77-.46l1.83,5.77c.14,.43,.53,.7,.95,.7,.1,0,.2-.01,.3-.05,.53-.17,.82-.73,.65-1.26l-1.91-6.01c.97-.58,1.87-1.35,2.67-2.3Zm-7.27-7.39c.83,0,1.5,.67,1.5,1.5s-.67,1.5-1.5,1.5-1.5-.67-1.5-1.5,.67-1.5,1.5-1.5Zm0,9c-.74,0-1.46-.13-2.16-.37l1.2-3.78c.31,.09,.62,.15,.96,.15s.65-.06,.96-.15l1.2,3.78c-.7,.24-1.42,.37-2.16,.37Z"/></svg>