<?xml version="1.0" encoding="UTF-8"?><svg id="Layer_1" xmlns="http://www.w3.org/2000/svg" viewBox="0 0 24 24"><path d="M10.5,10.5c-.26,0-.51-.1-.71-.29-.39-.39-.39-1.02,0-1.41l.79-.79h-3.59c-1.65,0-3,1.35-3,3v2c0,1.65,1.35,3,3,3,.55,0,1,.45,1,1s-.45,1-1,1c-2.76,0-5-2.24-5-5v-2c0-2.76,2.24-5,5-5h3.59l-.79-.79c-.39-.39-.39-1.02,0-1.41s1.02-.39,1.41,0l2.5,2.5c.39,.39,.39,1.02,0,1.41l-2.5,2.5c-.2,.2-.45,.29-.71,.29Zm6.5-4.5c-.55,0-1,.45-1,1s.45,1,1,1c1.65,0,3,1.35,3,3v2c0,1.65-1.35,3-3,3h-3.59l.79-.79c.39-.39,.39-1.02,0-1.41s-1.02-.39-1.41,0l-2.5,2.5c-.39,.39-.39,1.02,0,1.41l2.5,2.5c.2,.2,.45,.29,.71,.29s.51-.1,.71-.29c.39-.39,.39-1.02,0-1.41l-.79-.79h3.59c2.76,0,5-2.24,5-5v-2c0-2.76-2.24-5-5-5Z"/></svg>