<?xml version="1.0" encoding="UTF-8"?><svg id="Layer_1" xmlns="http://www.w3.org/2000/svg" viewBox="0 0 24 24"><path d="M21.71,20.29l-4.68-4.68c2.82-3.53,2.6-8.71-.67-11.98C12.85,.13,7.15,.13,3.64,3.64,.13,7.15,.13,12.85,3.64,16.36c1.75,1.75,4.06,2.63,6.36,2.63,1.99,0,3.98-.66,5.62-1.97l4.68,4.68c.2,.2,.45,.29,.71,.29s.51-.1,.71-.29c.39-.39,.39-1.02,0-1.41ZM5.05,14.95c-2.73-2.73-2.73-7.17,0-9.9,1.37-1.36,3.16-2.05,4.95-2.05s3.58,.68,4.95,2.05c2.73,2.73,2.73,7.17,0,9.9-2.73,2.73-7.17,2.73-9.9,0Z"/></svg>