<?xml version="1.0" encoding="UTF-8"?><svg id="Layer_1" xmlns="http://www.w3.org/2000/svg" viewBox="0 0 24 24"><path d="M12,23c-.77,0-1.56-.09-2.34-.26-.42-.1-.74-.41-.84-.82l-.58-2.3c-.33-.16-.65-.35-.96-.56l-2.29,.65c-.4,.11-.84-.01-1.12-.32-1.08-1.18-1.87-2.54-2.35-4.04-.13-.39-.02-.83,.28-1.12l1.72-1.67c-.01-.18-.02-.37-.02-.56s0-.37,.02-.56l-1.72-1.67c-.3-.3-.41-.74-.28-1.14,.48-1.49,1.27-2.85,2.35-4.04,.27-.31,.72-.43,1.12-.32l2.29,.65c.31-.21,.63-.4,.96-.56l.58-2.31c.1-.4,.41-.71,.82-.81,1.59-.35,3.13-.34,4.69,0,.42,.1,.74,.41,.84,.82l.58,2.3c.33,.16,.65,.35,.96,.56l2.29-.65c.4-.12,.84,.01,1.12,.32,1.08,1.18,1.87,2.54,2.35,4.04,.13,.39,.02,.83-.28,1.12l-1.72,1.67c.01,.18,.02,.37,.02,.56s0,.37-.02,.56l1.72,1.67c.3,.3,.41,.74,.28,1.14-.48,1.49-1.27,2.85-2.35,4.04-.28,.31-.72,.43-1.12,.32l-2.29-.65c-.31,.21-.63,.4-.96,.56l-.58,2.31c-.1,.4-.41,.71-.82,.81-.8,.17-1.58,.26-2.35,.26Zm1.24-1.56s0,0,0,.01h0Zm-2.48-.02h0s0,0,0,0Zm-.14-.54c.92,.14,1.82,.15,2.75,0l.67-2.65,.52-.26c.45-.19,.9-.46,1.33-.78l.39-.29,.56,.11,2.17,.62c.59-.73,1.05-1.52,1.39-2.38l-2.01-1.95,.06-.5c.03-.27,.06-.54,.06-.81s-.02-.55-.06-.81l-.06-.5,2.01-1.95c-.33-.86-.8-1.65-1.39-2.38l-2.64,.75-.48-.32c-.42-.32-.87-.58-1.33-.78l-.46-.2-.18-.55-.54-2.17c-.92-.14-1.82-.15-2.75,0l-.67,2.65-.52,.26c-.45,.19-.9,.46-1.33,.78l-.41,.3-.57-.13-2.14-.61c-.59,.73-1.05,1.52-1.39,2.38l2.01,1.95-.06,.5c-.03,.27-.06,.54-.06,.81s.02,.55,.06,.81l.06,.5-2.01,1.95c.33,.86,.8,1.65,1.39,2.38l2.62-.75,.48,.3c.44,.33,.89,.6,1.35,.79l.46,.2,.18,.55,.54,2.17Zm8.03-2.84s0,0,0,0c0,0,0,0,0,0Zm-13.31,0s0,0,0,0c0,0,0,0,0,0Zm15.23-3.3s0,0,0,.01c0,0,0,0,0-.01Zm-17.15,0s0,0,0,.01c0,0,0,0,0-.01Zm17.15-5.48s0,0,0,.01c0,0,0,0,0-.01Zm-17.14,0s0,0,0,.01c0,0,0,0,0-.01Zm15.22-3.3s0,0,0,0c0,0,0,0,0,0Zm-13.29,0s0,0,0,0c0,0,0,0,0,0Zm7.88-3.39h0s0,0,0,0Zm-2.47,0h0s0,0,0,0Zm1.23,13.45c-2.21,0-4-1.79-4-4s1.79-4,4-4,4,1.79,4,4-1.79,4-4,4Zm0-6c-1.1,0-2,.9-2,2s.9,2,2,2,2-.9,2-2-.9-2-2-2Z"/></svg>