<?xml version="1.0" encoding="UTF-8"?><svg id="Layer_1" xmlns="http://www.w3.org/2000/svg" viewBox="0 0 24 24"><path d="M18,14c-1.2,0-2.27,.54-3,1.38l-5.1-2.55c.12-.56,.11-1.12,0-1.66l5.1-2.55c.73,.84,1.8,1.38,3,1.38,2.21,0,4-1.79,4-4s-1.79-4-4-4-4,1.79-4,4c0,.29,.03,.57,.09,.84l-5.07,2.54c-.52-.6-1.2-1.03-1.98-1.24-1.03-.27-2.11-.13-3.04,.4-.93,.54-1.59,1.4-1.86,2.43s-.13,2.11,.4,3.04c.54,.93,1.4,1.59,2.43,1.86,.34,.09,.69,.14,1.04,.14,.69,0,1.38-.18,1.99-.54,.39-.22,.72-.52,1-.84l5.09,2.54c-.06,.27-.09,.55-.09,.84,0,2.21,1.79,4,4,4s4-1.79,4-4-1.79-4-4-4Zm0-10c1.1,0,2,.9,2,2s-.9,2-2,2-2-.9-2-2,.9-2,2-2ZM7.93,12.52c-.14,.52-.47,.95-.93,1.21-.46,.27-1,.34-1.52,.2-.52-.14-.95-.47-1.21-.93-.27-.46-.34-1-.2-1.52,.14-.52,.47-.95,.93-1.21,.31-.18,.65-.27,1-.27,.17,0,.35,.02,.52,.07,.52,.14,.95,.47,1.21,.93,.27,.46,.34,1,.2,1.52Zm10.07,7.48c-1.1,0-2-.9-2-2s.9-2,2-2,2,.9,2,2-.9,2-2,2Z"/></svg>