<?xml version="1.0" encoding="UTF-8"?><svg id="Layer_1" xmlns="http://www.w3.org/2000/svg" viewBox="0 0 24 24"><path d="M18.04,22.52c-.25,0-.51-.08-.73-.24l-5.31-3.86-5.31,3.86c-.43,.32-1.02,.31-1.45,0-.43-.31-.61-.87-.45-1.38l2.03-6.24L1.51,10.81c-.43-.32-.61-.87-.45-1.38s.64-.85,1.17-.85h6.56l2.03-6.24c.17-.51,.64-.85,1.17-.85s1.01,.34,1.17,.85h0s2.03,6.24,2.03,6.24h6.56c.54,0,1.01,.34,1.17,.85s-.01,1.06-.45,1.38l-5.31,3.86,2.03,6.24c.17,.51-.02,1.07-.45,1.38-.22,.16-.47,.24-.72,.24ZM4.59,10.57l4.58,3.33-1.75,5.38,4.58-3.33,4.58,3.33-1.75-5.38,4.58-3.33h-5.66l-1.75-5.38-1.75,5.38H4.59Z"/></svg>