<?xml version="1.0" encoding="UTF-8"?><svg id="Layer_1" xmlns="http://www.w3.org/2000/svg" viewBox="0 0 24 24"><path d="M22.49,10.81l-5.31,3.86,2.03,6.24c.17,.51-.02,1.07-.45,1.38-.43,.31-1.02,.31-1.45,0l-5.31-3.86-5.31,3.86c-.22,.16-.47,.24-.73,.24s-.51-.08-.72-.24c-.43-.32-.62-.87-.45-1.38l2.03-6.24L1.51,10.81c-.43-.32-.61-.87-.45-1.38,.17-.51,.64-.85,1.17-.85h6.56l2.03-6.24c.17-.51,.64-.85,1.17-.85s1.01,.34,1.17,.85h0s2.03,6.24,2.03,6.24h6.56c.54,0,1.01,.34,1.17,.85,.17,.51-.01,1.06-.45,1.38Z"/></svg>