<?xml version="1.0" encoding="UTF-8"?><svg id="Layer_1" xmlns="http://www.w3.org/2000/svg" viewBox="0 0 24 24"><path d="M18.87,8.51l.84-.84c.39-.39,.39-1.02,0-1.41s-1.02-.39-1.41,0l-.78,.78c-1.25-1.07-2.8-1.78-4.51-1.98v-1.06c.55,0,1-.45,1-1s-.45-1-1-1h-2c-.55,0-1,.45-1,1s.45,1,1,1v1.06c-4.22,.5-7.5,4.09-7.5,8.44,0,4.69,3.81,8.5,8.5,8.5s8.5-3.81,8.5-8.5c0-1.86-.61-3.58-1.63-4.99Zm-6.87,11.49c-3.58,0-6.5-2.92-6.5-6.5s2.92-6.5,6.5-6.5,6.5,2.92,6.5,6.5-2.92,6.5-6.5,6.5Zm2.85-5.06c.39,.39,.39,1.02,0,1.41-.2,.2-.45,.29-.71,.29s-.51-.1-.71-.29l-2.14-2.14c-.39-.39-.39-1.02,0-1.41s1.02-.39,1.41,0l2.14,2.14Z"/></svg>