<?xml version="1.0" encoding="UTF-8"?><svg id="Layer_1" xmlns="http://www.w3.org/2000/svg" viewBox="0 0 24 24"><path d="M12,18c-3.31,0-6-2.69-6-6s2.69-6,6-6,6,2.69,6,6-2.69,6-6,6Zm0-10c-2.21,0-4,1.79-4,4s1.79,4,4,4,4-1.79,4-4-1.79-4-4-4Zm1-4.89v-1.11c0-.55-.45-1-1-1s-1,.45-1,1v1.11c0,.55,.45,1,1,1s1-.45,1-1Zm-6.58,3.31c.39-.39,.39-1.02,0-1.41l-.79-.79c-.39-.39-1.02-.39-1.41,0s-.39,1.02,0,1.41l.79,.79c.2,.2,.45,.29,.71,.29s.51-.1,.71-.29Zm-2.31,5.58c0-.55-.45-1-1-1h-1.11c-.55,0-1,.45-1,1s.45,1,1,1h1.11c.55,0,1-.45,1-1Zm1.52,7.78l.79-.79c.39-.39,.39-1.02,0-1.41-.39-.39-1.02-.39-1.41,0l-.79,.79c-.39,.39-.39,1.02,0,1.41,.2,.2,.45,.29,.71,.29s.51-.1,.71-.29Zm7.36,2.22v-1.11c0-.55-.45-1-1-1s-1,.45-1,1v1.11c0,.55,.45,1,1,1s1-.45,1-1Zm6.78-2.22c.39-.39,.39-1.02,0-1.41l-.79-.79c-.39-.39-1.02-.39-1.41,0-.39,.39-.39,1.02,0,1.41l.79,.79c.2,.2,.45,.29,.71,.29s.51-.1,.71-.29Zm3.22-7.78c0-.55-.45-1-1-1h-1.11c-.55,0-1,.45-1,1s.45,1,1,1h1.11c.55,0,1-.45,1-1Zm-4.01-5.58l.79-.79c.39-.39,.39-1.02,0-1.41s-1.02-.39-1.41,0l-.79,.79c-.39,.39-.39,1.02,0,1.41,.2,.2,.45,.29,.71,.29s.51-.1,.71-.29Zm-5.99-3.31v-1.11c0-.55-.45-1-1-1s-1,.45-1,1v1.11c0,.55,.45,1,1,1s1-.45,1-1Z"/></svg>