<?xml version="1.0" encoding="UTF-8"?><svg id="Layer_1" xmlns="http://www.w3.org/2000/svg" viewBox="0 0 24 24"><path d="M3.06,12s-.07,0-.11,0c-.55-.06-.94-.55-.88-1.1C2.62,5.82,6.89,2,12,2c2.43,0,4.78,.91,6.58,2.49v-1.34c0-.55,.45-1,1-1s1,.45,1,1V7.15c0,.55-.45,1-1,1h-4c-.55,0-1-.45-1-1s.45-1,1-1h1.86c-1.47-1.38-3.38-2.15-5.44-2.15-4.08,0-7.5,3.06-7.95,7.11-.06,.51-.49,.89-.99,.89Zm18,0c-.54-.05-1.04,.33-1.1,.88-.45,4.05-3.87,7.11-7.95,7.11-2.05,0-3.97-.78-5.44-2.15h1.86c.55,0,1-.45,1-1s-.45-1-1-1H4.42c-.55,0-1,.45-1,1v4c0,.55,.45,1,1,1s1-.45,1-1v-1.34c1.81,1.59,4.12,2.49,6.58,2.49,5.11,0,9.38-3.82,9.94-8.89,.06-.55-.34-1.04-.88-1.1Z"/></svg>