<?xml version="1.0" encoding="UTF-8"?><svg id="Layer_1" xmlns="http://www.w3.org/2000/svg" viewBox="0 0 24 24"><path d="M20.8,9.15c-.57-.73-1.43-1.15-2.36-1.15h-4.44v-3c0-1.65-1.35-3-3-3h-1.62l-2.72,5.45c-.17,.34-.51,.55-.89,.55H2v14h14.44c1.38,0,2.58-.93,2.91-2.27l2-8c.23-.9,.03-1.84-.55-2.57Zm-4.36,10.85H4V10h1.76c1.14,0,2.17-.64,2.68-1.66l2.17-4.34h.38c.55,0,1,.45,1,1v5h6.44c.31,0,.6,.14,.79,.38,.19,.24,.26,.56,.18,.86l-.19,.76h-5.22v2h4.72l-.5,2h-6.22v2h5.72l-.31,1.24c-.11,.45-.51,.76-.97,.76Z"/></svg>