<?xml version="1.0" encoding="UTF-8"?><svg id="Layer_1" xmlns="http://www.w3.org/2000/svg" viewBox="0 0 24 24"><path d="M21.95,9.57h0l-.83-.78c-.28-.26-.43-.62-.41-1l.04-1.14c.03-.91-.32-1.81-.97-2.45-.65-.64-1.53-1.01-2.45-.96l-1.14,.04c-.38,0-.74-.14-1-.41l-.78-.83c-.62-.67-1.5-1.05-2.42-1.05s-1.79,.38-2.42,1.05l-.78,.83c-.26,.28-.61,.42-1,.41l-1.14-.04c-.91-.06-1.8,.32-2.45,.96s-1,1.54-.97,2.45l.04,1.14c.01,.38-.14,.74-.41,1l-.83,.78c-.67,.62-1.05,1.5-1.05,2.42,0,.91,.38,1.79,1.05,2.41l.83,.78c.28,.26,.43,.62,.41,1l-.04,1.14c-.03,.91,.32,1.8,.97,2.45s1.53,1.01,2.45,.97l1.14-.04c.35,0,.74,.14,1,.42l.78,.83c.62,.67,1.5,1.05,2.42,1.05s1.79-.38,2.42-1.05l.78-.83c.26-.28,.63-.41,1-.41l1.14,.04c.9,.04,1.8-.32,2.45-.97,.64-.65,1-1.54,.97-2.45l-.04-1.14c-.01-.38,.14-.74,.41-1l.83-.78c.67-.62,1.05-1.5,1.05-2.41,0-.91-.38-1.79-1.05-2.42Zm-6.24,1.13l-4,4c-.2,.2-.45,.29-.71,.29s-.51-.1-.71-.29l-2-2c-.39-.39-.39-1.02,0-1.41s1.02-.39,1.41,0l1.29,1.29,3.29-3.29c.39-.39,1.02-.39,1.41,0s.39,1.02,0,1.41Z"/></svg>