<?xml version="1.0" encoding="UTF-8"?><svg id="Layer_1" xmlns="http://www.w3.org/2000/svg" viewBox="0 0 24 24"><path d="M12,22.99c-.91,0-1.79-.38-2.42-1.05l-.78-.83c-.26-.28-.64-.42-1-.42l-1.14,.04c-.92,.04-1.8-.32-2.45-.97s-1-1.54-.97-2.45l.04-1.14c.01-.38-.14-.74-.41-1l-.83-.78c-.67-.62-1.05-1.5-1.05-2.41,0-.91,.38-1.79,1.05-2.42l.83-.78c.28-.26,.43-.62,.41-1l-.04-1.14c-.03-.91,.32-1.81,.97-2.45s1.54-1.02,2.45-.96l1.14,.04c.38,0,.74-.14,1-.41l.78-.83c.62-.67,1.5-1.05,2.42-1.05s1.79,.38,2.42,1.05l.78,.83c.26,.28,.62,.42,1,.41l1.14-.04c.92-.05,1.8,.32,2.45,.96,.65,.65,1,1.54,.97,2.45l-.04,1.14c-.01,.38,.14,.74,.41,1l.83,.78h0c.67,.62,1.05,1.5,1.05,2.42,0,.91-.38,1.79-1.05,2.41l-.83,.78c-.28,.26-.43,.62-.41,1l.04,1.14c.03,.91-.32,1.8-.97,2.45-.65,.64-1.55,1.01-2.45,.97l-1.14-.04c-.37,0-.74,.14-1,.41l-.78,.83c-.62,.67-1.5,1.05-2.42,1.05Zm-4.15-4.29c.92,0,1.79,.38,2.42,1.05l.78,.83c.5,.54,1.41,.54,1.91,0l.78-.83c.65-.7,1.57-1.1,2.53-1.05l1.14,.04c.36,0,.71-.12,.97-.38,.26-.26,.39-.6,.38-.97l-.04-1.14c-.03-.95,.35-1.87,1.05-2.53l.83-.78c.27-.25,.41-.59,.41-.95s-.15-.7-.41-.96l-.83-.78c-.7-.65-1.08-1.57-1.05-2.53l.04-1.14c.01-.37-.12-.71-.38-.97-.26-.26-.6-.38-.97-.38l-1.14,.04c-.96,.05-1.88-.35-2.53-1.05l-.78-.83c-.5-.54-1.41-.54-1.91,0l-.78,.83c-.65,.7-1.6,1.09-2.53,1.05l-1.14-.04c-.36,0-.71,.12-.97,.38-.26,.26-.39,.6-.38,.97l.04,1.14c.03,.96-.35,1.88-1.05,2.53l-.83,.78c-.27,.25-.41,.59-.41,.96,0,.37,.15,.7,.41,.95l.83,.78c.7,.65,1.08,1.57,1.05,2.53l-.04,1.14c-.01,.37,.12,.71,.38,.97s.6,.38,.97,.38l1.14-.04s.07,0,.11,0Zm3.86-3.99l4-4c.39-.39,.39-1.02,0-1.41s-1.02-.39-1.41,0l-3.29,3.29-1.29-1.29c-.39-.39-1.02-.39-1.41,0s-.39,1.02,0,1.41l2,2c.2,.2,.45,.29,.71,.29s.51-.1,.71-.29Z"/></svg>