<?xml version="1.0" encoding="UTF-8"?><svg id="Layer_1" xmlns="http://www.w3.org/2000/svg" viewBox="0 0 24 24"><path d="M12,13c-.55,0-1-.45-1-1v-3c0-.55,.45-1,1-1s1,.45,1,1v3c0,.55-.45,1-1,1Zm9.57,7.58c.55-.89,.6-1.98,.13-2.92L14.68,3.63c-.51-1.02-1.54-1.66-2.68-1.66s-2.17,.64-2.68,1.66L2.3,17.66c-.47,.94-.42,2.03,.13,2.92,.55,.89,1.5,1.42,2.55,1.42h14.03c1.05,0,2-.53,2.55-1.42ZM12.89,4.52l7.01,14.03c.23,.45,.04,.83-.04,.97-.09,.14-.35,.47-.85,.47H4.99c-.5,0-.76-.33-.85-.47-.09-.14-.27-.52-.04-.97L11.11,4.52c.17-.35,.51-.55,.89-.55s.72,.21,.89,.55Zm-.89,13.48c.83,0,1.5-.67,1.5-1.5s-.67-1.5-1.5-1.5-1.5,.67-1.5,1.5,.67,1.5,1.5,1.5Z"/></svg>